# Blender v3.0.1 OBJ File: 'bullet.blend'
# www.blender.org
mtllib bullet.mtl
o Cylinder
v 0.000000 0.464836 -1.294500
v 0.000000 0.464836 0.426207
v 0.328688 0.328688 -1.294500
v 0.328688 0.328688 0.426207
v 0.464836 0.000000 -1.294500
v 0.464836 -0.000000 0.426207
v 0.328688 -0.328688 -1.294500
v 0.328688 -0.328688 0.426207
v -0.000000 -0.464836 -1.294500
v -0.000000 -0.464836 0.426207
v -0.328688 -0.328688 -1.294500
v -0.328688 -0.328688 0.426207
v -0.464836 0.000000 -1.294500
v -0.464836 -0.000000 0.426207
v -0.328688 0.328688 -1.294500
v -0.328688 0.328688 0.426207
v 0.000000 0.294659 1.379894
v 0.208356 0.208355 1.379894
v 0.294659 -0.000000 1.379894
v 0.208356 -0.208356 1.379894
v 0.000000 -0.294659 1.379894
v -0.208355 -0.208356 1.379894
v -0.294659 -0.000000 1.379894
v -0.208355 0.208355 1.379894
v 0.000000 0.294659 2.114268
v 0.208356 0.208355 2.114268
v 0.294659 -0.000000 2.114268
v 0.208356 -0.208356 2.114268
v 0.000000 -0.294659 2.114268
v -0.208355 -0.208356 2.114268
v -0.294659 -0.000000 2.114268
v -0.208355 0.208355 2.114268
v -0.000000 -0.000000 2.533328
vt 1.000000 1.000000
vt 0.875000 0.500000
vt 1.000000 0.500000
vt 0.875000 1.000000
vt 0.750000 0.500000
vt 0.750000 1.000000
vt 0.625000 0.500000
vt 0.625000 1.000000
vt 0.500000 0.500000
vt 0.500000 1.000000
vt 0.375000 0.500000
vt 0.375000 1.000000
vt 0.250000 0.500000
vt 0.500000 1.000000
vt 0.250000 1.000000
vt 0.125000 0.500000
vt 0.125000 1.000000
vt 0.000000 0.500000
vt 0.919706 0.080294
vt 0.580294 0.080294
vt 0.580294 0.419706
vt 1.000000 1.000000
vt 0.875000 1.000000
vt 0.875000 1.000000
vt 0.125000 1.000000
vt 0.750000 1.000000
vt 0.375000 1.000000
vt 0.000000 1.000000
vt 0.000000 1.000000
vt 0.625000 1.000000
vt 0.250000 1.000000
vt 0.125000 1.000000
vt 0.250000 1.000000
vt 0.125000 1.000000
vt 0.000000 1.000000
vt 0.500000 1.000000
vt 0.750000 1.000000
vt 0.375000 1.000000
vt 0.625000 1.000000
vt 0.375000 1.000000
vt 0.625000 1.000000
vt 1.000000 1.000000
vt 0.875000 1.000000
vt 0.000000 1.000000
vt 0.250000 1.000000
vt 0.500000 1.000000
vt 0.750000 1.000000
vt 0.750000 0.490000
vt 0.919706 0.419706
vt 0.990000 0.250000
vt 0.750000 0.010000
vt 0.510000 0.250000
vn -0.0000 0.9963 0.0863
vn 0.7071 0.7071 0.0000
vn -0.0000 1.0000 0.0000
vn 0.7045 0.7045 0.0863
vn 1.0000 -0.0000 -0.0000
vn 0.9963 0.0000 0.0863
vn 0.7071 -0.7071 -0.0000
vn 0.7045 -0.7045 0.0863
vn -0.0000 -1.0000 -0.0000
vn 0.0000 -0.9963 0.0863
vn -0.7071 -0.7071 -0.0000
vn -0.7045 -0.7045 0.0863
vn -1.0000 0.0000 0.0000
vn -0.0000 -0.9959 0.0901
vn -0.9963 -0.0000 0.0863
vn -0.7071 0.7071 0.0000
vn -0.7045 0.7045 0.0863
vn -0.0000 0.0000 -1.0000
vn -0.0000 0.9959 0.0901
vn 0.6783 0.6783 0.2824
vn 0.7042 0.7042 0.0901
vn -0.7042 0.7042 0.0901
vn 0.9959 0.0000 0.0901
vn -0.7042 -0.7042 0.0901
vn 0.7042 -0.7042 0.0901
vn -0.9959 -0.0000 0.0901
vn -0.6783 0.6783 0.2824
vn -0.9593 -0.0000 0.2824
vn -0.0000 -0.0000 1.0000
vn -0.0000 0.9593 0.2824
vn -0.0000 -0.9593 0.2824
vn 0.9593 -0.0000 0.2824
vn -0.6783 -0.6783 0.2824
vn 0.6783 -0.6783 0.2824
usemtl None
s 1
f 2/1/1 3/2/2 1/3/3
f 4/4/4 5/5/5 3/2/2
f 6/6/6 7/7/7 5/5/5
f 8/8/8 9/9/9 7/7/7
f 10/10/10 11/11/11 9/9/9
f 12/12/12 13/13/13 11/11/11
f 8/8/8 21/14/14 10/10/10
f 14/15/15 15/16/16 13/13/13
f 16/17/17 1/18/3 15/16/16
f 7/19/18 11/20/18 15/21/18
f 17/22/19 26/23/20 18/24/21
f 14/15/15 24/25/22 16/17/17
f 6/6/6 18/24/21 19/26/23
f 10/10/10 22/27/24 12/12/12
f 16/17/17 17/28/19 2/29/1
f 2/1/1 18/24/21 4/4/4
f 6/6/6 20/30/25 8/8/8
f 12/12/12 23/31/26 14/15/15
f 32/32/27 31/33/28 33/34/29
f 24/25/22 25/35/30 17/28/19
f 22/27/24 31/33/28 23/31/26
f 20/30/25 29/36/31 21/14/14
f 19/26/23 26/23/20 27/37/32
f 23/31/26 32/32/27 24/25/22
f 21/14/14 30/38/33 22/27/24
f 20/30/25 27/37/32 28/39/34
f 30/38/33 29/36/31 33/40/29
f 28/39/34 27/37/32 33/41/29
f 26/23/20 25/42/30 33/43/29
f 25/35/30 32/32/27 33/44/29
f 31/33/28 30/38/33 33/45/29
f 29/36/31 28/39/34 33/46/29
f 27/37/32 26/23/20 33/47/29
f 2/1/1 4/4/4 3/2/2
f 4/4/4 6/6/6 5/5/5
f 6/6/6 8/8/8 7/7/7
f 8/8/8 10/10/10 9/9/9
f 10/10/10 12/12/12 11/11/11
f 12/12/12 14/15/15 13/13/13
f 8/8/8 20/30/25 21/14/14
f 14/15/15 16/17/17 15/16/16
f 16/17/17 2/29/1 1/18/3
f 15/21/18 1/48/18 3/49/18
f 3/49/18 5/50/18 7/19/18
f 7/19/18 9/51/18 11/20/18
f 11/20/18 13/52/18 15/21/18
f 15/21/18 3/49/18 7/19/18
f 17/22/19 25/42/30 26/23/20
f 14/15/15 23/31/26 24/25/22
f 6/6/6 4/4/4 18/24/21
f 10/10/10 21/14/14 22/27/24
f 16/17/17 24/25/22 17/28/19
f 2/1/1 17/22/19 18/24/21
f 6/6/6 19/26/23 20/30/25
f 12/12/12 22/27/24 23/31/26
f 24/25/22 32/32/27 25/35/30
f 22/27/24 30/38/33 31/33/28
f 20/30/25 28/39/34 29/36/31
f 19/26/23 18/24/21 26/23/20
f 23/31/26 31/33/28 32/32/27
f 21/14/14 29/36/31 30/38/33
f 20/30/25 19/26/23 27/37/32
